# xmcd
#
# Track frame offsets:
#	150
#	29675
#	60380
#	82320
#	115417
#	143705
#	178742
#	200710
#	232192
#
# Disc length: 3453 seconds
#
# Revision: 0
# Processed by: cddbd v1.4PL0 Copyright (c) Steve Scherf et al.
# Submitted via: EasyCDDAExtractor 4.6.0.1
#
DISCID=890d7b09
DTITLE=John Mooney and Bluesiana - Live
DYEAR=1992
DGENRE=Blues
TTITLE0=Mean Mistreater
TTITLE1=Phonograph Blues
TTITLE2=Maybe Baby
TTITLE3=Junco Partner
TTITLE4=Kind Hearted Woman
TTITLE5=Ain't Gonna Marry
TTITLE6=Standin' 'round Cryin'
TTITLE7=Travelin' On
TTITLE8=Shortin' Bread
EXTD=
EXTT0=
EXTT1=
EXTT2=
EXTT3=
EXTT4=
EXTT5=
EXTT6=
EXTT7=
EXTT8=
PLAYORDER=
